<svg width="16" height="17" viewBox="0 0 16 17" fill="none" xmlns="http://www.w3.org/2000/svg">
<path d="M14.41 7.41751C14.6384 8.77536 14.4294 10.1707 13.8132 11.402C13.1969 12.6333 12.2052 13.6369 10.9814 14.2679C9.75755 14.8989 8.36484 15.1246 7.00435 14.9125C5.64387 14.7003 4.38599 14.0613 3.41236 13.0877C2.43872 12.114 1.7997 10.8562 1.58756 9.49567C1.37543 8.13518 1.60114 6.74247 2.23213 5.51863C2.86312 4.29479 3.86672 3.30314 5.09804 2.68687C6.32935 2.07059 7.72467 1.86158 9.08252 2.09001C9.21231 2.11296 9.32779 2.18623 9.40383 2.29389C9.47988 2.40154 9.51034 2.53487 9.48859 2.66487C9.46684 2.79487 9.39464 2.91102 9.2877 2.98806C9.18075 3.0651 9.04771 3.0968 8.91752 3.07626C8.12885 2.94359 7.32074 2.98437 6.54944 3.19576C5.77814 3.40716 5.06216 3.78409 4.45134 4.30032C3.84052 4.81655 3.34953 5.45969 3.01254 6.18497C2.67555 6.91025 2.50065 7.70026 2.50002 8.50001C2.49883 9.84638 2.99367 11.146 3.89002 12.1506C4.25353 11.6234 4.71529 11.1712 5.25002 10.8188C5.29567 10.7885 5.34999 10.7741 5.40464 10.7777C5.4593 10.7813 5.51125 10.8027 5.55252 10.8388C6.23174 11.4265 7.09992 11.75 7.99814 11.75C8.89636 11.75 9.76454 11.4265 10.4438 10.8388C10.485 10.8027 10.537 10.7813 10.5916 10.7777C10.6463 10.7741 10.7006 10.7885 10.7463 10.8188C11.2815 11.1712 11.7439 11.6234 12.1081 12.1506C13.0052 11.1463 13.5007 9.84662 13.5 8.50001C13.5 8.19259 13.4745 7.8857 13.4238 7.58251C13.4123 7.51747 13.4138 7.45079 13.4282 7.38633C13.4426 7.32187 13.4696 7.26091 13.5077 7.20696C13.5458 7.15301 13.5943 7.10714 13.6502 7.07202C13.7061 7.03689 13.7685 7.01319 13.8336 7.00229C13.8988 6.99139 13.9654 6.99351 14.0298 7.00852C14.0941 7.02353 14.1548 7.05113 14.2084 7.08974C14.262 7.12835 14.3074 7.17719 14.342 7.23345C14.3766 7.28971 14.3997 7.35226 14.41 7.41751ZM5.25002 8.00001C5.25002 8.54391 5.4113 9.07559 5.71348 9.52782C6.01565 9.98006 6.44514 10.3325 6.94764 10.5407C7.45013 10.7488 8.00307 10.8033 8.53651 10.6972C9.06996 10.5911 9.55997 10.3291 9.94456 9.94455C10.3292 9.55996 10.5911 9.06995 10.6972 8.53651C10.8033 8.00306 10.7488 7.45012 10.5407 6.94763C10.3325 6.44513 9.98007 6.01564 9.52783 5.71347C9.0756 5.41129 8.54392 5.25001 8.00002 5.25001C7.27067 5.25001 6.5712 5.53974 6.05547 6.05546C5.53975 6.57119 5.25002 7.27066 5.25002 8.00001ZM14.8538 2.64626C14.8073 2.59977 14.7522 2.56289 14.6915 2.53773C14.6308 2.51257 14.5657 2.49961 14.5 2.49961C14.4343 2.49961 14.3692 2.51257 14.3085 2.53773C14.2478 2.56289 14.1927 2.59977 14.1463 2.64626L12.5 4.29313L11.8538 3.64626C11.8073 3.5998 11.7522 3.56295 11.6915 3.53781C11.6308 3.51267 11.5657 3.49973 11.5 3.49973C11.4343 3.49973 11.3693 3.51267 11.3086 3.53781C11.2479 3.56295 11.1927 3.5998 11.1463 3.64626C11.0998 3.69271 11.063 3.74786 11.0378 3.80856C11.0127 3.86926 10.9997 3.93431 10.9997 4.00001C10.9997 4.0657 11.0127 4.13076 11.0378 4.19146C11.063 4.25215 11.0998 4.3073 11.1463 4.35376L12.1463 5.35376C12.1927 5.40025 12.2478 5.43712 12.3085 5.46229C12.3692 5.48745 12.4343 5.5004 12.5 5.5004C12.5657 5.5004 12.6308 5.48745 12.6915 5.46229C12.7522 5.43712 12.8073 5.40025 12.8538 5.35376L14.8538 3.35376C14.9003 3.30732 14.9371 3.25218 14.9623 3.19148C14.9875 3.13078 15.0004 3.06571 15.0004 3.00001C15.0004 2.9343 14.9875 2.86924 14.9623 2.80854C14.9371 2.74784 14.9003 2.69269 14.8538 2.64626Z" fill="#FFF200"/>
</svg>
