<svg width="47" height="46" viewBox="0 0 47 46" fill="none" xmlns="http://www.w3.org/2000/svg">
<rect x="0.5" width="46" height="46" rx="23" fill="#3D3D3D" fill-opacity="0.36"/>
<rect x="1" y="0.5" width="45" height="45" rx="22.5" stroke="#4D4D4D" stroke-opacity="0.08"/>
<g clip-path="url(#clip0_257_1243)">
<path d="M37.1935 17.2824C34.7997 18.7647 33.3213 21.3059 33.3213 24.1294C33.3213 27.3059 35.2222 30.2 38.1087 31.4C37.5455 33.2353 36.7006 34.9294 35.6446 36.4824C34.0957 38.6706 32.4764 40.9294 30.0827 40.9294C27.689 40.9294 26.985 39.5177 24.1688 39.5177C21.4231 39.5177 20.4374 41 18.1845 41C15.9316 41 14.3828 38.9529 12.6227 36.4118C10.2994 32.8824 8.9617 28.7882 8.8913 24.4824C8.8913 17.4941 13.3971 13.7529 17.9029 13.7529C20.2966 13.7529 22.2679 15.3059 23.7464 15.3059C25.1545 15.3059 27.4074 13.6824 30.0827 13.6824C32.8988 13.6118 35.5742 14.9529 37.1935 17.2824ZM28.8155 10.7176C30.0123 9.30588 30.6459 7.54118 30.7163 5.70588C30.7163 5.49412 30.7163 5.21176 30.6459 5C28.6042 5.21176 26.7034 6.2 25.3657 7.75294C24.1688 9.09412 23.4648 10.7882 23.3944 12.6235C23.3944 12.8353 23.3944 13.0471 23.4648 13.2588C23.6056 13.2588 23.8168 13.3294 23.9576 13.3294C25.8585 13.1882 27.6186 12.2 28.8155 10.7176Z" fill="white"/>
</g>
<defs>
<clipPath id="clip0_257_1243">
<rect width="29.2174" height="36" fill="white" transform="translate(8.8913 5)"/>
</clipPath>
</defs>
</svg>
