<svg width="28" height="30" viewBox="0 0 28 30" fill="none" xmlns="http://www.w3.org/2000/svg">
<path d="M22.7943 19.4949C22.2739 18.5986 21.5005 16.0627 21.5005 12.7505C21.5005 10.7614 20.7103 8.85371 19.3038 7.44719C17.8973 6.04066 15.9896 5.25049 14.0005 5.25049C12.0114 5.25049 10.1037 6.04066 8.6972 7.44719C7.29068 8.85371 6.5005 10.7614 6.5005 12.7505C6.5005 16.0636 5.72613 18.5986 5.20581 19.4949C5.07294 19.7227 5.0025 19.9816 5.0016 20.2453C5.00069 20.5091 5.06935 20.7684 5.20066 20.9972C5.33196 21.226 5.52126 21.416 5.74947 21.5483C5.97769 21.6806 6.23674 21.7503 6.5005 21.7505H10.3264C10.4995 22.5972 10.9596 23.3582 11.6291 23.9047C12.2986 24.4512 13.1363 24.7496 14.0005 24.7496C14.8647 24.7496 15.7024 24.4512 16.3719 23.9047C17.0414 23.3582 17.5015 22.5972 17.6746 21.7505H21.5005C21.7642 21.7501 22.0231 21.6803 22.2512 21.548C22.4793 21.4156 22.6684 21.2255 22.7996 20.9968C22.9308 20.7681 22.9994 20.5088 22.9985 20.2451C22.9975 19.9814 22.9271 19.7226 22.7943 19.4949ZM14.0005 23.2505C13.5353 23.2503 13.0816 23.106 12.7019 22.8374C12.3221 22.5688 12.0349 22.1891 11.8799 21.7505H16.1211C15.9661 22.1891 15.6789 22.5688 15.2991 22.8374C14.9194 23.106 14.4657 23.2503 14.0005 23.2505ZM6.5005 20.2505C7.22238 19.0092 8.0005 16.133 8.0005 12.7505C8.0005 11.1592 8.63264 9.63307 9.75786 8.50785C10.8831 7.38263 12.4092 6.75049 14.0005 6.75049C15.5918 6.75049 17.1179 7.38263 18.2431 8.50785C19.3684 9.63307 20.0005 11.1592 20.0005 12.7505C20.0005 16.1302 20.7768 19.0064 21.5005 20.2505H6.5005Z" fill="#D9D7D7"/>
</svg>
