<svg width="23" height="22" viewBox="0 0 23 22" fill="none" xmlns="http://www.w3.org/2000/svg">
<path d="M18.375 6.875H15.625V4.8125C15.625 3.71848 15.1904 2.66927 14.4168 1.89568C13.6432 1.1221 12.594 0.6875 11.5 0.6875C10.406 0.6875 9.35677 1.1221 8.58318 1.89568C7.8096 2.66927 7.375 3.71848 7.375 4.8125V6.875H4.625C4.26033 6.875 3.91059 7.01987 3.65273 7.27773C3.39487 7.53559 3.25 7.88533 3.25 8.25V17.875C3.25 18.2397 3.39487 18.5894 3.65273 18.8473C3.91059 19.1051 4.26033 19.25 4.625 19.25H18.375C18.7397 19.25 19.0894 19.1051 19.3473 18.8473C19.6051 18.5894 19.75 18.2397 19.75 17.875V8.25C19.75 7.88533 19.6051 7.53559 19.3473 7.27773C19.0894 7.01987 18.7397 6.875 18.375 6.875ZM12.1875 13.6323V15.8125C12.1875 15.9948 12.1151 16.1697 11.9861 16.2986C11.8572 16.4276 11.6823 16.5 11.5 16.5C11.3177 16.5 11.1428 16.4276 11.0139 16.2986C10.8849 16.1697 10.8125 15.9948 10.8125 15.8125V13.6323C10.3538 13.4701 9.96718 13.151 9.721 12.7313C9.47483 12.3117 9.38493 11.8185 9.4672 11.3389C9.54948 10.8594 9.79862 10.4244 10.1706 10.1108C10.5426 9.79722 11.0135 9.62522 11.5 9.62522C11.9865 9.62522 12.4574 9.79722 12.8294 10.1108C13.2014 10.4244 13.4505 10.8594 13.5328 11.3389C13.6151 11.8185 13.5252 12.3117 13.279 12.7313C13.0328 13.151 12.6462 13.4701 12.1875 13.6323ZM14.25 6.875H8.75V4.8125C8.75 4.08315 9.03973 3.38368 9.55546 2.86796C10.0712 2.35223 10.7707 2.0625 11.5 2.0625C12.2293 2.0625 12.9288 2.35223 13.4445 2.86796C13.9603 3.38368 14.25 4.08315 14.25 4.8125V6.875Z" fill="#1F0E0B"/>
</svg>
