<svg width="24" height="24" viewBox="0 0 24 24" fill="none" xmlns="http://www.w3.org/2000/svg">
<path d="M16.75 3H6.25C5.85218 3 5.47064 3.15804 5.18934 3.43934C4.90804 3.72064 4.75 4.10218 4.75 4.5V21C4.75007 21.1338 4.78595 21.2652 4.85393 21.3805C4.92191 21.4958 5.0195 21.5908 5.13659 21.6557C5.25367 21.7206 5.38598 21.7529 5.51978 21.7494C5.65358 21.7458 5.784 21.7066 5.8975 21.6356L11.5 18.1341L17.1034 21.6356C17.2169 21.7063 17.3472 21.7454 17.4809 21.7488C17.6146 21.7522 17.7467 21.7198 17.8636 21.655C17.9806 21.5902 18.0781 21.4953 18.146 21.3801C18.2139 21.2649 18.2498 21.1337 18.25 21V4.5C18.25 4.10218 18.092 3.72064 17.8107 3.43934C17.5294 3.15804 17.1478 3 16.75 3Z" fill="black"/>
</svg>
