<svg width="16" height="17" viewBox="0 0 16 17" fill="none" xmlns="http://www.w3.org/2000/svg">
<path d="M13 2.5H11.5V2C11.5 1.86739 11.4473 1.74021 11.3536 1.64645C11.2598 1.55268 11.1326 1.5 11 1.5C10.8674 1.5 10.7402 1.55268 10.6464 1.64645C10.5527 1.74021 10.5 1.86739 10.5 2V2.5H5.5V2C5.5 1.86739 5.44732 1.74021 5.35355 1.64645C5.25979 1.55268 5.13261 1.5 5 1.5C4.86739 1.5 4.74021 1.55268 4.64645 1.64645C4.55268 1.74021 4.5 1.86739 4.5 2V2.5H3C2.73478 2.5 2.48043 2.60536 2.29289 2.79289C2.10536 2.98043 2 3.23478 2 3.5V13.5C2 13.7652 2.10536 14.0196 2.29289 14.2071C2.48043 14.3946 2.73478 14.5 3 14.5H13C13.2652 14.5 13.5196 14.3946 13.7071 14.2071C13.8946 14.0196 14 13.7652 14 13.5V3.5C14 3.23478 13.8946 2.98043 13.7071 2.79289C13.5196 2.60536 13.2652 2.5 13 2.5ZM5.25 12C5.10166 12 4.95666 11.956 4.83332 11.8736C4.70999 11.7912 4.61386 11.6741 4.55709 11.537C4.50032 11.4 4.48547 11.2492 4.51441 11.1037C4.54335 10.9582 4.61478 10.8246 4.71967 10.7197C4.82456 10.6148 4.9582 10.5434 5.10368 10.5144C5.24917 10.4855 5.39997 10.5003 5.53701 10.5571C5.67406 10.6139 5.79119 10.71 5.8736 10.8333C5.95601 10.9567 6 11.1017 6 11.25C6 11.4489 5.92098 11.6397 5.78033 11.7803C5.63968 11.921 5.44891 12 5.25 12ZM8 12C7.85166 12 7.70666 11.956 7.58332 11.8736C7.45999 11.7912 7.36386 11.6741 7.30709 11.537C7.25032 11.4 7.23547 11.2492 7.26441 11.1037C7.29335 10.9582 7.36478 10.8246 7.46967 10.7197C7.57456 10.6148 7.7082 10.5434 7.85368 10.5144C7.99917 10.4855 8.14997 10.5003 8.28701 10.5571C8.42406 10.6139 8.54119 10.71 8.6236 10.8333C8.70601 10.9567 8.75 11.1017 8.75 11.25C8.75 11.4489 8.67098 11.6397 8.53033 11.7803C8.38968 11.921 8.19891 12 8 12ZM8 9.5C7.85166 9.5 7.70666 9.45601 7.58332 9.3736C7.45999 9.29119 7.36386 9.17406 7.30709 9.03701C7.25032 8.89997 7.23547 8.74917 7.26441 8.60368C7.29335 8.4582 7.36478 8.32456 7.46967 8.21967C7.57456 8.11478 7.7082 8.04335 7.85368 8.01441C7.99917 7.98547 8.14997 8.00032 8.28701 8.05709C8.42406 8.11386 8.54119 8.20999 8.6236 8.33332C8.70601 8.45666 8.75 8.60166 8.75 8.75C8.75 8.94891 8.67098 9.13968 8.53033 9.28033C8.38968 9.42098 8.19891 9.5 8 9.5ZM10.75 12C10.6017 12 10.4567 11.956 10.3333 11.8736C10.21 11.7912 10.1139 11.6741 10.0571 11.537C10.0003 11.4 9.98547 11.2492 10.0144 11.1037C10.0434 10.9582 10.1148 10.8246 10.2197 10.7197C10.3246 10.6148 10.4582 10.5434 10.6037 10.5144C10.7492 10.4855 10.9 10.5003 11.037 10.5571C11.1741 10.6139 11.2912 10.71 11.3736 10.8333C11.456 10.9567 11.5 11.1017 11.5 11.25C11.5 11.4489 11.421 11.6397 11.2803 11.7803C11.1397 11.921 10.9489 12 10.75 12ZM10.75 9.5C10.6017 9.5 10.4567 9.45601 10.3333 9.3736C10.21 9.29119 10.1139 9.17406 10.0571 9.03701C10.0003 8.89997 9.98547 8.74917 10.0144 8.60368C10.0434 8.4582 10.1148 8.32456 10.2197 8.21967C10.3246 8.11478 10.4582 8.04335 10.6037 8.01441C10.7492 7.98547 10.9 8.00032 11.037 8.05709C11.1741 8.11386 11.2912 8.20999 11.3736 8.33332C11.456 8.45666 11.5 8.60166 11.5 8.75C11.5 8.94891 11.421 9.13968 11.2803 9.28033C11.1397 9.42098 10.9489 9.5 10.75 9.5ZM13 5.5H3V3.5H4.5V4C4.5 4.13261 4.55268 4.25979 4.64645 4.35355C4.74021 4.44732 4.86739 4.5 5 4.5C5.13261 4.5 5.25979 4.44732 5.35355 4.35355C5.44732 4.25979 5.5 4.13261 5.5 4V3.5H10.5V4C10.5 4.13261 10.5527 4.25979 10.6464 4.35355C10.7402 4.44732 10.8674 4.5 11 4.5C11.1326 4.5 11.2598 4.44732 11.3536 4.35355C11.4473 4.25979 11.5 4.13261 11.5 4V3.5H13V5.5Z" fill="#9DFF00"/>
</svg>
