<svg width="21" height="20" viewBox="0 0 21 20" fill="none" xmlns="http://www.w3.org/2000/svg">
<path d="M2.1665 5.83317C2.1665 4.9127 2.9127 4.1665 3.83317 4.1665H17.1665C18.087 4.1665 18.8332 4.9127 18.8332 5.83317V9.1665C18.8332 9.62675 18.4601 9.99984 17.9998 9.99984C17.5396 9.99984 17.1665 9.62675 17.1665 9.1665V8.33317H3.83317V14.1665H12.1665C12.6268 14.1665 12.9998 14.5396 12.9998 14.9998C12.9998 15.4601 12.6268 15.8332 12.1665 15.8332H3.83317C2.9127 15.8332 2.1665 15.087 2.1665 14.1665V5.83317Z" fill="#1F0E0B"/>
<path d="M4.6665 11.6668C4.6665 11.2066 5.0396 10.8335 5.49984 10.8335H7.1665C7.62674 10.8335 7.99984 11.2066 7.99984 11.6668C7.99984 12.1271 7.62674 12.5002 7.1665 12.5002H5.49984C5.0396 12.5002 4.6665 12.1271 4.6665 11.6668ZM8.83317 11.6668C8.83317 11.2066 9.20625 10.8335 9.6665 10.8335H12.9998C13.4601 10.8335 13.8332 11.2066 13.8332 11.6668C13.8332 12.1271 13.4601 12.5002 12.9998 12.5002H9.6665C9.20625 12.5002 8.83317 12.1271 8.83317 11.6668ZM16.3332 10.8335C16.7934 10.8335 17.1665 11.2066 17.1665 11.6668V12.5002H17.9998C18.4601 12.5002 18.8332 12.8732 18.8332 13.3335C18.8332 13.7937 18.4601 14.1668 17.9998 14.1668H17.1665V15.0002C17.1665 15.4604 16.7934 15.8335 16.3332 15.8335C15.8729 15.8335 15.4998 15.4604 15.4998 15.0002V14.1668H14.6665C14.2063 14.1668 13.8332 13.7937 13.8332 13.3335C13.8332 12.8732 14.2063 12.5002 14.6665 12.5002H15.4998V11.6668C15.4998 11.2066 15.8729 10.8335 16.3332 10.8335Z" fill="#1F0E0B"/>
</svg>
