<svg width="24" height="25" viewBox="0 0 24 25" fill="none" xmlns="http://www.w3.org/2000/svg">
<rect y="0.5" width="24" height="24" rx="12" fill="white" fill-opacity="0.09"/>
<path d="M17.8242 17.4752C17.8799 17.531 17.9241 17.5971 17.9543 17.67C17.9845 17.7428 18 17.8209 18 17.8997C18 17.9785 17.9845 18.0566 17.9543 18.1294C17.9241 18.2023 17.8799 18.2684 17.8242 18.3242C17.7684 18.3799 17.7023 18.4241 17.6294 18.4543C17.5566 18.4845 17.4785 18.5 17.3997 18.5C17.3209 18.5 17.2428 18.4845 17.17 18.4543C17.0971 18.4241 17.031 18.3799 16.9752 18.3242L12 13.3482L7.02478 18.3242C6.9122 18.4368 6.75951 18.5 6.6003 18.5C6.44109 18.5 6.2884 18.4368 6.17582 18.3242C6.06325 18.2116 6 18.0589 6 17.8997C6 17.7405 6.06325 17.5878 6.17582 17.4752L11.1518 12.5L6.17582 7.52478C6.06325 7.4122 6 7.25951 6 7.1003C6 6.94109 6.06325 6.7884 6.17582 6.67582C6.2884 6.56325 6.44109 6.5 6.6003 6.5C6.75951 6.5 6.9122 6.56325 7.02478 6.67582L12 11.6518L16.9752 6.67582C17.0878 6.56325 17.2405 6.5 17.3997 6.5C17.5589 6.5 17.7116 6.56325 17.8242 6.67582C17.9368 6.7884 18 6.94109 18 7.1003C18 7.25951 17.9368 7.4122 17.8242 7.52478L12.8482 12.5L17.8242 17.4752Z" fill="#D9D7D7"/>
</svg>
