<svg width="47" height="46" viewBox="0 0 47 46" fill="none" xmlns="http://www.w3.org/2000/svg">
<rect x="0.5" width="46" height="46" rx="23" fill="#3D3D3D" fill-opacity="0.36"/>
<rect x="1" y="0.5" width="45" height="45" rx="22.5" stroke="#4D4D4D" stroke-opacity="0.08"/>
<g clip-path="url(#clip0_257_1250)">
<path d="M41.5 22.9999C41.5 13.0588 33.4411 4.99992 23.5 4.99992C13.5589 4.99992 5.5 13.0588 5.5 22.9999C5.5 31.9842 12.0823 39.4309 20.6875 40.7812V28.203H16.1172V22.9999H20.6875V19.0343C20.6875 14.523 23.3748 12.0312 27.4864 12.0312C29.4557 12.0312 31.5156 12.3827 31.5156 12.3827V16.8124H29.2459C27.0098 16.8124 26.3125 18.1999 26.3125 19.6234V22.9999H31.3047L30.5066 28.203H26.3125V40.7812C34.9177 39.4309 41.5 31.9842 41.5 22.9999Z" fill="#1877F2"/>
<path d="M30.5066 28.2031L31.3047 23H26.3125V19.6235C26.3125 18.2 27.0098 16.8125 29.2459 16.8125H31.5156V12.3828C31.5156 12.3828 29.4557 12.0312 27.4864 12.0312C23.3748 12.0312 20.6875 14.5231 20.6875 19.0344V23H16.1172V28.2031H20.6875V40.7813C21.6039 40.9251 22.5432 41 23.5 41C24.4568 41 25.3961 40.9251 26.3125 40.7813V28.2031H30.5066Z" fill="white"/>
</g>
<defs>
<clipPath id="clip0_257_1250">
<rect width="36" height="36" fill="white" transform="translate(5.5 5)"/>
</clipPath>
</defs>
</svg>
