<svg width="16" height="17" viewBox="0 0 16 17" fill="none" xmlns="http://www.w3.org/2000/svg">
<path d="M13.5 6.99984H6.38059L13.125 5.21921C13.1888 5.20239 13.2487 5.17309 13.3011 5.13301C13.3536 5.09293 13.3976 5.04285 13.4306 4.98568C13.4636 4.9285 13.485 4.86535 13.4934 4.79988C13.5019 4.73441 13.4973 4.6679 13.48 4.60421L12.97 2.72921C12.8998 2.47695 12.733 2.2625 12.5059 2.1323C12.2787 2.0021 12.0094 1.96664 11.7562 2.03359L2.23809 4.54609C2.11136 4.57898 1.99247 4.63683 1.88837 4.71625C1.78427 4.79566 1.69706 4.89505 1.63184 5.00859C1.56627 5.12073 1.5239 5.24491 1.50725 5.37375C1.49061 5.50259 1.50004 5.63346 1.53497 5.75859L1.99997 7.47234C1.99997 7.48109 1.99997 7.49046 1.99997 7.49984V12.9998C1.99997 13.2651 2.10533 13.5194 2.29286 13.7069C2.4804 13.8945 2.73475 13.9998 2.99997 13.9998H13C13.2652 13.9998 13.5195 13.8945 13.7071 13.7069C13.8946 13.5194 14 13.2651 14 12.9998V7.49984C14 7.36723 13.9473 7.24005 13.8535 7.14628C13.7598 7.05251 13.6326 6.99984 13.5 6.99984ZM12.01 2.99984L12.385 4.37921L10.2856 4.93734L8.52747 3.91984L12.01 2.99984ZM4.84684 4.89171L6.60434 5.90671L2.87934 6.88984L2.50434 5.50984L4.84684 4.89171Z" fill="#00FBFF"/>
</svg>
