<svg width="15" height="19" viewBox="0 0 15 19" fill="none" xmlns="http://www.w3.org/2000/svg">
<path d="M4.31074 0.987992C4.15274 0.868367 3.9614 0.802209 3.76401 0.798954C3.56662 0.795699 3.37325 0.855512 3.21147 0.969865C3.0497 1.08422 2.92778 1.24727 2.8631 1.43578C2.79842 1.62428 2.79427 1.82861 2.85127 2.01963C3.01554 2.57204 3.03396 3.15827 2.9047 3.72009C2.77637 4.27867 2.50481 4.79326 2.11731 5.21214C2.09149 5.24031 2.06738 5.27005 2.04513 5.30119C1.48647 6.07516 -1.66681 10.6062 1.16308 15.4964L1.1912 15.5428C1.87862 16.5876 2.82015 17.4364 3.92548 18.0077C5.01773 18.5721 6.23545 18.8426 7.46121 18.7931C8.76464 18.8161 10.0518 18.4979 11.1975 17.8694C12.3636 17.2293 13.3454 16.2945 14.0471 15.1563C15.2666 13.0721 15.1569 10.8402 14.5983 9.05451C14.0518 7.30384 13.0235 5.82032 12.1546 5.16856C12.018 5.06639 11.8566 5.00364 11.6875 4.98702C11.5185 4.97039 11.3481 5.00051 11.1946 5.07416C11.0412 5.14781 10.9104 5.26222 10.8163 5.40516C10.7222 5.5481 10.6683 5.71419 10.6604 5.88569C10.5976 7.24132 10.3202 8.30233 9.91615 9.13598C9.70806 6.85575 8.85975 5.16098 7.83146 3.90293C6.75631 2.58614 5.42807 1.72407 4.71661 1.26177C4.57892 1.17533 4.44388 1.08466 4.31167 0.989887L4.31074 0.987992Z" fill="url(#paint0_linear_257_165)"/>
<defs>
<linearGradient id="paint0_linear_257_165" x1="7.5" y1="0.798828" x2="7.5" y2="18.7988" gradientUnits="userSpaceOnUse">
<stop stop-color="#FBB105"/>
<stop offset="1" stop-color="#FF6F00"/>
</linearGradient>
</defs>
</svg>
