<svg width="24" height="24" viewBox="0 0 24 24" fill="none" xmlns="http://www.w3.org/2000/svg">
<path d="M20.25 6.74984H16.9613C16.9978 6.71891 17.0353 6.68891 17.0709 6.65609C17.3557 6.40314 17.5851 6.09415 17.745 5.74846C17.9049 5.40276 17.9917 5.02781 18 4.64703C18.0123 4.23048 17.9394 3.8158 17.7856 3.42846C17.6319 3.04112 17.4006 2.68928 17.106 2.39456C16.8113 2.09984 16.4596 1.86845 16.0723 1.71459C15.685 1.56073 15.2703 1.48765 14.8538 1.49984C14.4728 1.50805 14.0977 1.5948 13.7518 1.75466C13.406 1.91453 13.0968 2.14406 12.8438 2.42891C12.4936 2.83474 12.2089 3.29276 12 3.78641C11.7911 3.29276 11.5064 2.83474 11.1562 2.42891C10.9032 2.14406 10.594 1.91453 10.2482 1.75466C9.90232 1.5948 9.52718 1.50805 9.14625 1.49984C8.72969 1.48765 8.31503 1.56073 7.92774 1.71459C7.54044 1.86845 7.18868 2.09984 6.89405 2.39456C6.59941 2.68928 6.36812 3.04112 6.21438 3.42846C6.06064 3.8158 5.98768 4.23048 6 4.64703C6.00833 5.02781 6.09514 5.40276 6.255 5.74846C6.41486 6.09415 6.64434 6.40314 6.92906 6.65609C6.96469 6.68703 7.00219 6.71703 7.03875 6.74984H3.75C3.35218 6.74984 2.97064 6.90788 2.68934 7.18918C2.40804 7.47049 2.25 7.85202 2.25 8.24984V11.2498C2.25 11.6477 2.40804 12.0292 2.68934 12.3105C2.97064 12.5918 3.35218 12.7498 3.75 12.7498V18.7498C3.75 19.1477 3.90804 19.5292 4.18934 19.8105C4.47064 20.0918 4.85218 20.2498 5.25 20.2498H10.875C10.9745 20.2498 11.0698 20.2103 11.1402 20.14C11.2105 20.0697 11.25 19.9743 11.25 19.8748V11.2498H3.75V8.24984H11.25V11.2498H12.75V8.24984H20.25V11.2498H12.75V19.8748C12.75 19.9743 12.7895 20.0697 12.8598 20.14C12.9302 20.2103 13.0255 20.2498 13.125 20.2498H18.75C19.1478 20.2498 19.5294 20.0918 19.8107 19.8105C20.092 19.5292 20.25 19.1477 20.25 18.7498V12.7498C20.6478 12.7498 21.0294 12.5918 21.3107 12.3105C21.592 12.0292 21.75 11.6477 21.75 11.2498V8.24984C21.75 7.85202 21.592 7.47049 21.3107 7.18918C21.0294 6.90788 20.6478 6.74984 20.25 6.74984ZM7.92281 5.53109C7.79168 5.41234 7.68651 5.26776 7.61391 5.10643C7.54131 4.9451 7.50285 4.7705 7.50094 4.59359C7.4962 4.38632 7.53287 4.18017 7.60881 3.98725C7.68476 3.79433 7.79844 3.6185 7.9432 3.47007C8.08796 3.32164 8.26089 3.2036 8.45186 3.12285C8.64282 3.04211 8.84798 3.00029 9.05531 2.99984H9.10125C9.27815 3.00175 9.45275 3.04021 9.61409 3.11281C9.77542 3.18541 9.92 3.29058 10.0388 3.42172C10.8253 4.31047 11.1028 5.78422 11.2003 6.69547C10.2853 6.59891 8.8125 6.32141 7.92281 5.53109ZM16.0791 5.53109C15.1894 6.31859 13.7128 6.59609 12.7978 6.69359C12.9094 5.70828 13.2188 4.26547 13.9688 3.42266C14.0875 3.29152 14.2321 3.18635 14.3934 3.11375C14.5547 3.04115 14.7293 3.00269 14.9062 3.00078H14.9522C15.1595 3.00208 15.3645 3.04475 15.5552 3.12629C15.7458 3.20783 15.9183 3.3266 16.0624 3.47564C16.2066 3.62468 16.3195 3.801 16.3947 3.99425C16.4698 4.18751 16.5056 4.39382 16.5 4.60109C16.4969 4.7768 16.4578 4.95 16.3851 5.10998C16.3124 5.26995 16.2076 5.41328 16.0772 5.53109H16.0791Z" fill="#E0FE10"/>
</svg>
