<svg width="24" height="24" viewBox="0 0 24 24" fill="none" xmlns="http://www.w3.org/2000/svg">
<path d="M10 21V12M13 8H7.5C6.83696 8 6.20107 7.73661 5.73223 7.26777C5.26339 6.79893 5 6.16304 5 5.5C5 4.83696 5.26339 4.20107 5.73223 3.73223C6.20107 3.26339 6.83696 3 7.5 3C9 3 10.375 4.25 11.375 5.5M14 21V12M5 12H19V20C19 20.2652 18.8946 20.5196 18.7071 20.7071C18.5196 20.8946 18.2652 21 18 21H6C5.73478 21 5.48043 20.8946 5.29289 20.7071C5.10536 20.5196 5 20.2652 5 20V12ZM4 8H20C20.2652 8 20.5196 8.10536 20.7071 8.29289C20.8946 8.48043 21 8.73478 21 9V12H3V9C3 8.73478 3.10536 8.48043 3.29289 8.29289C3.48043 8.10536 3.73478 8 4 8ZM16.155 3C13.155 3 10.655 8 10.655 8H16.155C16.818 8 17.4539 7.73661 17.9228 7.26777C18.3916 6.79893 18.655 6.16304 18.655 5.5C18.655 4.83696 18.3916 4.20107 17.9228 3.73223C17.4539 3.26339 16.818 3 16.155 3Z" stroke="#D9D7D7" stroke-linecap="round" stroke-linejoin="round"/>
</svg>
