<svg width="47" height="46" viewBox="0 0 47 46" fill="none" xmlns="http://www.w3.org/2000/svg">
<rect x="0.5" width="46" height="46" rx="23" fill="#3D3D3D" fill-opacity="0.36"/>
<rect x="1" y="0.5" width="45" height="45" rx="22.5" stroke="#4D4D4D" stroke-opacity="0.08"/>
<path d="M40.22 23.396C40.22 22.161 40.1092 20.9735 39.9033 19.8335H23.5V26.5706H32.8733C32.4696 28.7477 31.2425 30.5922 29.3979 31.8272V36.1972H35.0267C38.32 33.1652 40.22 28.7002 40.22 23.396Z" fill="#4285F4"/>
<path d="M23.5 40.4166C28.2025 40.4166 32.145 38.857 35.0267 36.197L29.3979 31.827C27.8383 32.872 25.8433 33.4895 23.5 33.4895C18.9638 33.4895 15.1242 30.4257 13.7546 26.3091H7.93584V30.8216C10.8017 36.5137 16.6917 40.4166 23.5 40.4166Z" fill="#34A853"/>
<path d="M13.7546 26.3091C13.4062 25.2641 13.2083 24.1478 13.2083 22.9999C13.2083 21.852 13.4062 20.7357 13.7546 19.6907V15.1782H7.93583C6.71666 17.6052 6.08225 20.2839 6.08333 22.9999C6.08333 25.8103 6.75625 28.4703 7.93583 30.8216L13.7546 26.3091Z" fill="#FBBC05"/>
<path d="M23.5 12.5106C26.0571 12.5106 28.3529 13.3893 30.1579 15.1152L35.1533 10.1197C32.1371 7.30933 28.1946 5.5835 23.5 5.5835C16.6917 5.5835 10.8017 9.48641 7.93584 15.1785L13.7546 19.691C15.1242 15.5743 18.9638 12.5106 23.5 12.5106Z" fill="#EA4335"/>
</svg>
