<svg width="16" height="17" viewBox="0 0 16 17" fill="none" xmlns="http://www.w3.org/2000/svg">
<path d="M15 6.875C15 11.25 8.51312 14.7913 8.23687 14.9375C8.16406 14.9767 8.08268 14.9972 8 14.9972C7.91732 14.9972 7.83594 14.9767 7.76312 14.9375C7.55375 14.825 3.79125 12.7694 1.97063 9.88188C1.94714 9.84405 1.93418 9.80064 1.93309 9.75614C1.932 9.71163 1.94281 9.66764 1.96441 9.62871C1.98601 9.58978 2.01761 9.55732 2.05595 9.5347C2.09429 9.51207 2.13798 9.50009 2.1825 9.5H4.5C4.58234 9.50005 4.66342 9.47977 4.73603 9.44096C4.80865 9.40214 4.87055 9.34599 4.91625 9.2775L5.5 8.4025L7.08375 10.7775C7.14443 10.8685 7.23329 10.9371 7.3367 10.9728C7.4401 11.0085 7.55236 11.0092 7.65625 10.975C7.76646 10.9377 7.86076 10.8641 7.92375 10.7662L8.7675 9.5H10C10.0685 9.50015 10.1364 9.48621 10.1993 9.45903C10.2622 9.43186 10.3189 9.39204 10.3658 9.34204C10.4127 9.29205 10.4488 9.23294 10.4719 9.1684C10.495 9.10387 10.5045 9.03527 10.5 8.96688C10.4888 8.83836 10.4295 8.71882 10.3338 8.63223C10.2382 8.54564 10.1134 8.49841 9.98438 8.5H8.5C8.41766 8.49995 8.33658 8.52023 8.26397 8.55904C8.19135 8.59786 8.12945 8.65401 8.08375 8.7225L7.5 9.5975L5.91625 7.2225C5.85553 7.13136 5.76657 7.06267 5.66303 7.02699C5.55949 6.99131 5.4471 6.99061 5.34312 7.025C5.23319 7.06253 5.13915 7.13609 5.07625 7.23375L4.2325 8.5H1.47063C1.4172 8.50015 1.36512 8.48317 1.32204 8.45157C1.27897 8.41996 1.24715 8.37539 1.23125 8.32438C1.08045 7.85593 1.00246 7.36711 1 6.875C1.00116 5.84764 1.40979 4.86269 2.13624 4.13624C2.86269 3.40979 3.84764 3.00116 4.875 3C6.16563 3 7.29562 3.555 8 4.49312C8.70438 3.555 9.83438 3 11.125 3C12.1524 3.00116 13.1373 3.40979 13.8638 4.13624C14.5902 4.86269 14.9988 5.84764 15 6.875Z" fill="#FF4400"/>
</svg>
