<svg width="24" height="24" viewBox="0 0 24 24" fill="none" xmlns="http://www.w3.org/2000/svg">
<path d="M14.079 6.839C13.7937 6.56502 13.457 6.35018 13.0883 6.20683C12.7196 6.06349 12.3262 5.99448 11.9307 6.00378C11.5352 6.01307 11.1455 6.10048 10.7839 6.26099C10.4224 6.42149 10.0962 6.65192 9.824 6.939M13 20H14.083C14.5974 20.0001 15.1068 19.8989 15.5821 19.7021C16.0574 19.5053 16.4893 19.2168 16.853 18.853C17.2168 18.4893 17.5053 18.0574 17.7021 17.5821C17.8989 17.1068 18.0001 16.5974 18 16.083V9C18 7.4087 17.3679 5.88258 16.2426 4.75736C15.1174 3.63214 13.5913 3 12 3C10.4087 3 8.88258 3.63214 7.75736 4.75736C6.63214 5.88258 6 7.4087 6 9V16M13 20V19C13 18.7348 12.8946 18.4804 12.7071 18.2929C12.5196 18.1054 12.2652 18 12 18H11C10.7348 18 10.4804 18.1054 10.2929 18.2929C10.1054 18.4804 10 18.7348 10 19V20C10 20.2652 10.1054 20.5196 10.2929 20.7071C10.4804 20.8946 10.7348 21 11 21H12C12.2652 21 12.5196 20.8946 12.7071 20.7071C12.8946 20.5196 13 20.2652 13 20ZM6 16V10H5C4.46957 10 3.96086 10.2107 3.58579 10.5858C3.21071 10.9609 3 11.4696 3 12V14C3 14.5304 3.21071 15.0391 3.58579 15.4142C3.96086 15.7893 4.46957 16 5 16H6ZM18 10H19C19.5304 10 20.0391 10.2107 20.4142 10.5858C20.7893 10.9609 21 11.4696 21 12V14C21 14.5304 20.7893 15.0391 20.4142 15.4142C20.0391 15.7893 19.5304 16 19 16H18V10Z" stroke="#D9D7D7" stroke-linecap="round" stroke-linejoin="round"/>
</svg>
