<svg width="28" height="30" viewBox="0 0 28 30" fill="none" xmlns="http://www.w3.org/2000/svg">
<path d="M22.5603 13.564L15.0603 6.06399C14.779 5.7829 14.3977 5.625 14 5.625C13.6024 5.625 13.221 5.7829 12.9397 6.06399L5.4397 13.564C5.29973 13.7029 5.18878 13.8683 5.1133 14.0505C5.03782 14.2327 4.99931 14.428 5.00001 14.6252V23.6252C5.00001 23.8242 5.07903 24.0149 5.21968 24.1556C5.36033 24.2962 5.5511 24.3752 5.75001 24.3752H11.75C11.9489 24.3752 12.1397 24.2962 12.2803 24.1556C12.421 24.0149 12.5 23.8242 12.5 23.6252V18.3752H15.5V23.6252C15.5 23.8242 15.579 24.0149 15.7197 24.1556C15.8603 24.2962 16.0511 24.3752 16.25 24.3752H22.25C22.4489 24.3752 22.6397 24.2962 22.7803 24.1556C22.921 24.0149 23 23.8242 23 23.6252V14.6252C23.0007 14.428 22.9622 14.2327 22.8867 14.0505C22.8112 13.8683 22.7003 13.7029 22.5603 13.564ZM21.5 22.8752H17V17.6252C17 17.4263 16.921 17.2356 16.7803 17.0949C16.6397 16.9543 16.4489 16.8752 16.25 16.8752H11.75C11.5511 16.8752 11.3603 16.9543 11.2197 17.0949C11.079 17.2356 11 17.4263 11 17.6252V22.8752H6.50001V14.6252L14 7.12524L21.5 14.6252V22.8752Z" fill="#D9D7D7"/>
</svg>
