<svg width="18" height="18" viewBox="0 0 18 18" fill="none" xmlns="http://www.w3.org/2000/svg">
<path fill-rule="evenodd" clip-rule="evenodd" d="M8.29298 0.292786C8.48051 0.105315 8.73482 0 8.99998 0C9.26514 0 9.51945 0.105315 9.70698 0.292786L15.707 6.29279L17.707 8.29279C17.8891 8.48139 17.9899 8.73399 17.9877 8.99619C17.9854 9.25838 17.8802 9.5092 17.6948 9.6946C17.5094 9.88001 17.2586 9.98518 16.9964 9.98746C16.7342 9.98974 16.4816 9.88894 16.293 9.70679L16 9.41379V15.9998C16 16.5302 15.7893 17.0389 15.4142 17.414C15.0391 17.7891 14.5304 17.9998 14 17.9998H11C10.7348 17.9998 10.4804 17.8944 10.2929 17.7069C10.1053 17.5194 9.99998 17.265 9.99998 16.9998V13.9998H7.99998V16.9998C7.99998 17.265 7.89462 17.5194 7.70709 17.7069C7.51955 17.8944 7.2652 17.9998 6.99998 17.9998H3.99998C3.46955 17.9998 2.96084 17.7891 2.58577 17.414C2.21069 17.0389 1.99998 16.5302 1.99998 15.9998V9.41379L1.70698 9.70679C1.51838 9.88894 1.26578 9.98974 1.00358 9.98746C0.741382 9.98518 0.490569 9.88001 0.305161 9.6946C0.119753 9.5092 0.0145843 9.25838 0.0123059 8.99619C0.0100274 8.73399 0.110822 8.48139 0.29298 8.29279L2.29298 6.29279L8.29298 0.292786Z" fill="black"/>
</svg>
