<svg width="30" height="30" viewBox="0 0 30 30" fill="none" xmlns="http://www.w3.org/2000/svg">
<path opacity="0.4" d="M29.3605 14.8785C29.3605 22.8728 22.8471 29.3831 14.8488 29.3831C6.85064 29.3831 0.337219 22.8728 0.337219 14.8785C0.337219 6.87015 6.85064 0.359863 14.8488 0.359863C22.8471 0.359863 29.3605 6.87015 29.3605 14.8785Z" fill="#DEFC11"/>
<path d="M20.6534 14.8791C20.6534 15.2458 20.538 15.614 20.3071 15.9088C20.2639 15.9667 20.0618 16.2051 19.9031 16.3602L19.8165 16.4449C18.6045 17.7299 15.5888 19.6625 14.0593 20.2817C14.0593 20.2958 13.1503 20.664 12.7174 20.6767H12.6597C11.9959 20.6767 11.3755 20.3113 11.058 19.7189C10.8849 19.393 10.7262 18.4479 10.7117 18.4352C10.5819 17.5875 10.4953 16.2897 10.4953 14.865C10.4953 13.3711 10.5819 12.0156 10.7406 11.1833C10.7406 11.1692 10.8993 10.4075 11.0003 10.1536C11.159 9.7882 11.4476 9.47646 11.8084 9.27897C12.0969 9.13932 12.4 9.06738 12.7174 9.06738C13.0493 9.0829 13.6697 9.29308 13.915 9.39182C15.5311 10.0125 18.6189 12.0438 19.8021 13.2851C20.0041 13.4826 20.2206 13.7238 20.2783 13.7788C20.5236 14.0891 20.6534 14.47 20.6534 14.8791Z" fill="#DEFC11"/>
</svg>
