<svg width="24" height="24" viewBox="0 0 24 24" fill="none" xmlns="http://www.w3.org/2000/svg">
<rect x="0.5" y="0.5" width="23" height="23" rx="11.5" fill="white"/>
<rect x="0.5" y="0.5" width="23" height="23" rx="11.5" stroke="#D9D7D7"/>
<path fill-rule="evenodd" clip-rule="evenodd" d="M2 12C2 6.477 6.477 2 12 2C17.523 2 22 6.477 22 12C22 17.523 17.523 22 12 22C6.477 22 2 17.523 2 12ZM15.707 10.707C15.8892 10.5184 15.99 10.2658 15.9877 10.0036C15.9854 9.7414 15.8802 9.49059 15.6948 9.30518C15.5094 9.11977 15.2586 9.0146 14.9964 9.01233C14.7342 9.01005 14.4816 9.11084 14.293 9.293L11 12.586L9.207 10.793C9.0184 10.6108 8.7658 10.51 8.5036 10.5123C8.2414 10.5146 7.99059 10.6198 7.80518 10.8052C7.61977 10.9906 7.5146 11.2414 7.51233 11.5036C7.51005 11.7658 7.61084 12.0184 7.793 12.207L10.293 14.707C10.4805 14.8945 10.7348 14.9998 11 14.9998C11.2652 14.9998 11.5195 14.8945 11.707 14.707L15.707 10.707Z" fill="#E0FE10"/>
</svg>
