<svg width="24" height="24" viewBox="0 0 24 24" fill="none" xmlns="http://www.w3.org/2000/svg">
<path d="M10 19H5C4.73478 19 4.48043 18.8946 4.29289 18.7071C4.10536 18.5196 4 18.2652 4 18V17C4 16.2044 4.31607 15.4413 4.87868 14.8787C5.44129 14.3161 6.20435 14 7 14H9M19 15C19 15.7956 18.6839 16.5587 18.1213 17.1213M19 15C19 14.2044 18.6839 13.4413 18.1213 12.8787M19 15H20M18.1213 17.1213C17.5587 17.6839 16.7956 18 16 18M18.1213 17.1213L18.828 17.828M16 18C15.2044 18 14.4413 17.6839 13.8787 17.1213M16 18V19M18.1213 12.8787C17.5587 12.3161 16.7956 12 16 12M18.1213 12.8787L18.828 12.172M16 12C15.2044 12 14.4413 12.3161 13.8787 12.8787M16 12V11M13.8787 17.1213C13.3161 16.5587 13 15.7956 13 15M13.8787 17.1213L13.172 17.828M13 15C13 14.2044 13.3161 13.4413 13.8787 12.8787M13 15H12M13.8787 12.8787L13.172 12.172M12 8C12 8.79565 11.6839 9.55871 11.1213 10.1213C10.5587 10.6839 9.79565 11 9 11C8.20435 11 7.44129 10.6839 6.87868 10.1213C6.31607 9.55871 6 8.79565 6 8C6 7.20435 6.31607 6.44129 6.87868 5.87868C7.44129 5.31607 8.20435 5 9 5C9.79565 5 10.5587 5.31607 11.1213 5.87868C11.6839 6.44129 12 7.20435 12 8Z" stroke="#D9D7D7" stroke-linecap="square" stroke-linejoin="round"/>
</svg>
