<svg width="131" height="131" viewBox="0 0 131 131" fill="none" xmlns="http://www.w3.org/2000/svg">
<path fill-rule="evenodd" clip-rule="evenodd" d="M0.916504 65.4998C0.916504 29.8305 29.8305 0.916504 65.4998 0.916504C101.169 0.916504 130.083 29.8305 130.083 65.4998C130.083 101.169 101.169 130.083 65.4998 130.083C29.8305 130.083 0.916504 101.169 0.916504 65.4998ZM89.4409 57.1492C90.6173 55.9312 91.2683 54.2998 91.2536 52.6064C91.2389 50.9131 90.5596 49.2932 89.3622 48.0958C88.1648 46.8984 86.545 46.2192 84.8516 46.2044C83.1582 46.1897 81.5269 46.8407 80.3088 48.0171L59.0415 69.2844L47.4617 57.7046C46.2437 56.5282 44.6123 55.8772 42.9189 55.8919C41.2256 55.9067 39.6057 56.5859 38.4083 57.7833C37.2109 58.9807 36.5317 60.6006 36.5169 62.2939C36.5022 63.9873 37.1532 65.6187 38.3296 66.8367L54.4755 82.9825C55.6866 84.1933 57.329 84.8735 59.0415 84.8735C60.754 84.8735 62.3964 84.1933 63.6075 82.9825L89.4409 57.1492Z" fill="#FBDA05"/>
</svg>
