<svg width="24" height="24" viewBox="0 0 24 24" fill="none" xmlns="http://www.w3.org/2000/svg">
<path d="M5 18.4286V19.7143C5 20.0553 5.13696 20.3823 5.38076 20.6234C5.62456 20.8645 5.95522 21 6.3 21H16.7C17.0448 21 17.3754 20.8645 17.6192 20.6234C17.863 20.3823 18 20.0553 18 19.7143V18.4286C18 17.4056 17.5891 16.4245 16.8577 15.7012C16.1263 14.9778 15.1343 14.5714 14.1 14.5714H8.9C7.86566 14.5714 6.87368 14.9778 6.14228 15.7012C5.41089 16.4245 5 17.4056 5 18.4286ZM15.4 6.85714C15.4 7.88012 14.9891 8.8612 14.2577 9.58456C13.5263 10.3079 12.5343 10.7143 11.5 10.7143C10.4657 10.7143 9.47367 10.3079 8.74228 9.58456C8.01089 8.8612 7.6 7.88012 7.6 6.85714C7.6 5.83416 8.01089 4.85309 8.74228 4.12973C9.47367 3.40638 10.4657 3 11.5 3C12.5343 3 13.5263 3.40638 14.2577 4.12973C14.9891 4.85309 15.4 5.83416 15.4 6.85714Z" stroke="#D9D7D7" stroke-width="2"/>
</svg>
