<svg width="23" height="22" viewBox="0 0 23 22" fill="none" xmlns="http://www.w3.org/2000/svg">
<path fill-rule="evenodd" clip-rule="evenodd" d="M11.5 12.8335C11.5 12.1042 11.7897 11.4047 12.3055 10.889C12.8212 10.3732 13.5207 10.0835 14.25 10.0835H17.9167C18.4029 10.0835 18.8692 10.2767 19.213 10.6205C19.5568 10.9643 19.75 11.4306 19.75 11.9168V13.7502C19.75 14.2364 19.5568 14.7027 19.213 15.0465C18.8692 15.3903 18.4029 15.5835 17.9167 15.5835H14.25C13.5207 15.5835 12.8212 15.2938 12.3055 14.778C11.7897 14.2623 11.5 13.5628 11.5 12.8335ZM14.25 11.9168C14.0069 11.9168 13.7737 12.0134 13.6018 12.1853C13.4299 12.3572 13.3333 12.5904 13.3333 12.8335C13.3333 13.0766 13.4299 13.3098 13.6018 13.4817C13.7737 13.6536 14.0069 13.7502 14.25 13.7502H17.9167V11.9168H14.25Z" fill="#1F0E0B"/>
<path fill-rule="evenodd" clip-rule="evenodd" d="M11.7686 3.01839C11.9405 2.84654 12.1736 2.75 12.4167 2.75C12.6597 2.75 12.8928 2.84654 13.0647 3.01839L15.5462 5.4998H12.9538L11.7686 4.31455C11.5967 4.14265 11.5002 3.90954 11.5002 3.66647C11.5002 3.4234 11.5967 3.19029 11.7686 3.01839ZM11.8795 5.4998L9.39808 3.01839C9.22618 2.84654 8.99307 2.75 8.75 2.75C8.50693 2.75 8.27382 2.84654 8.10192 3.01839L5.6205 5.4998H11.8795ZM4.70383 6.41647L4.6525 6.46689C4.25257 6.56358 3.89678 6.792 3.64239 7.11539C3.388 7.43878 3.24979 7.83835 3.25 8.2498V17.4165C3.25 17.9027 3.44315 18.369 3.78697 18.7128C4.13079 19.0566 4.5971 19.2498 5.08333 19.2498H16.0833C16.5696 19.2498 17.0359 19.0566 17.3797 18.7128C17.7235 18.369 17.9167 17.9027 17.9167 17.4165H14.25C13.0344 17.4165 11.8686 16.9336 11.0091 16.074C10.1496 15.2145 9.66667 14.0487 9.66667 12.8331C9.66667 11.6176 10.1496 10.4518 11.0091 9.59223C11.8686 8.73269 13.0344 8.2498 14.25 8.2498H17.9167C17.9169 7.83835 17.7787 7.43878 17.5243 7.11539C17.2699 6.792 16.9141 6.56358 16.5142 6.46689L16.4628 6.41647H4.70383Z" fill="#1F0E0B"/>
</svg>
